<?xml version="1.0" encoding="utf-8" ?>
<svg xmlns="http://www.w3.org/2000/svg" xmlns:xlink="http://www.w3.org/1999/xlink" width="140" height="140">
	<clipPath id="cl_3">
		<rect width="140" height="140"/>
	</clipPath>
	<g clip-path="url(#cl_3)">
		<path fill="#2D4756" transform="translate(2.5 8)" d="M36.8916 53.5503L37.3018 53.5503Q37.6606 53.5503 37.917 54.5757Q37.6606 55.6011 37.3018 55.6011L36.8916 55.6011Q36.6865 55.6011 36.0713 54.5757Q36.4814 53.6528 36.8916 53.5503ZM36.0713 58.6772L36.4814 58.6772Q36.8916 58.7285 36.8916 59.0874L35.0459 68.521L35.251 68.521Q41.147 60.8818 41.8135 60.5229L42.0186 60.5229Q42.4287 60.5742 42.4287 60.9331L42.4287 61.3433Q33.4053 72.7251 33.4053 75.4937Q27.8169 101.744 24.792 101.744Q24.5869 101.744 24.1768 101.949Q22.126 101.949 22.126 98.4624L22.126 98.2573Q22.126 91.2847 32.79 72.4175Q35.5073 58.6772 36.0713 58.6772ZM23.5615 98.8726Q23.5615 100.359 24.1768 100.513L24.3818 100.513Q26.5352 100.513 31.1494 78.7749L31.1494 78.5698Q30.4829 78.5698 26.0225 88.8237Q23.5615 94.5659 23.5615 98.8726ZM50.6831 24.9419L51.2983 24.9419L51.5034 25.7622Q48.0171 35.606 42.2749 61.4458Q42.6338 61.4458 44.7358 58.7798Q46.7354 56.9854 48.4272 56.9341Q51.5034 56.9341 51.5034 60.6255Q51.5034 63.958 48.0171 67.188L48.0171 67.3931Q52.8877 67.3931 58.4761 60.8306L58.6812 60.8306Q59.0913 60.8818 59.0913 61.2407L59.0913 61.6509Q54.1182 68.6235 47.4019 68.6235Q44.5308 68.6235 42.48 66.5728L42.48 66.3677Q42.5312 65.9575 42.8901 65.9575L44.9409 66.5728L45.7612 66.5728Q49.0938 66.5728 50.2729 61.0356L50.2729 60.0103Q50.2729 58.7798 49.0425 58.1646L48.2222 58.1646Q45.3511 58.1646 40.4292 67.188L39.814 67.188Q39.814 66.7778 39.6089 66.7778Q47.1968 35.606 50.2729 25.147L50.6831 24.9419ZM62.1162 58.2671Q63.603 58.2671 64.167 60.5229L63.9619 60.9331L63.9619 61.7534L64.167 61.7534L68.0635 60.3179L68.8838 60.5229Q70.1143 58.4722 71.3447 58.4722L71.7549 58.4722Q72.9341 58.4722 73.1904 61.7534L73.1904 62.1636Q74.1133 62.1636 76.0615 60.728L76.8818 60.728L76.8818 61.3433Q72.3701 64.0605 72.165 65.2397Q70.8833 68.3159 68.2686 68.3159Q66.0127 68.3159 66.0127 65.4448L66.6279 62.5737L66.2178 62.5737Q64.5771 63.2402 63.0391 64.0093Q60.937 67.3418 59.1938 66.5215Q57.4507 65.7012 57.3994 62.9839Q57.3994 59.9077 62.1162 58.2671ZM60.8857 61.7534L60.8857 61.9585Q60.937 62.3687 61.2959 62.3687L62.3213 62.3687L62.5264 61.3433L62.5264 60.1128Q62.5264 59.7026 62.1162 59.7026L61.9111 59.7026Q60.8857 60.1641 60.8857 61.7534ZM70.1143 61.9585Q70.3193 62.7788 71.3447 62.7788L71.5498 62.7788Q71.96 62.7788 71.96 62.3687L71.96 60.9331Q71.96 59.8564 71.3447 59.7026Q70.1143 60.3691 70.1143 61.9585ZM59.04 61.7534L58.835 62.7788L58.835 63.394Q58.835 64.9834 59.6553 65.2397L59.8604 65.2397Q61.2959 65.2397 61.2959 63.8042Q59.9629 63.8042 59.3477 61.3945L59.04 61.7534ZM68.2686 61.9585Q67.4482 64.4194 67.4482 66.0601Q67.7559 66.8804 68.0635 66.8804L68.4736 66.8804Q70.4219 66.7778 71.3447 64.2144L71.3447 64.0093Q68.6787 63.6504 68.6787 61.9585L68.2686 61.9585ZM84.8799 25.6084Q85.7002 25.916 85.7002 26.2236L85.7002 27.0439Q84.2646 29.0435 77.292 60.6768L77.7021 60.6768L82.2139 57.3955L83.0342 58.0107Q83.0342 58.4209 77.4971 62.5225L77.4971 62.9326Q80.2656 66.0088 80.7783 66.0088L81.5986 66.0088Q83.6494 66.0088 86.7256 60.4717L87.5459 60.4717Q87.5459 60.8818 87.751 60.8818Q84.3159 67.6494 81.3936 67.6494Q80.2144 67.6494 76.6768 64.1631Q76.2153 64.7271 74.4209 71.751L74.0107 71.751Q73.8569 71.751 73.3955 71.1357Q80.9834 38.0669 84.2646 26.0186Q84.8799 25.8135 84.8799 25.6084ZM87.6997 55.2935L88.1099 55.2935Q88.4688 55.2935 88.7251 56.3188L87.2896 60.4204Q91.186 64.3682 91.186 65.1372L91.8013 65.1372Q92.1602 65.0347 95.4927 60.6255L96.1079 60.6255L96.1079 60.8306Q96.1079 62.061 91.5962 67.188Q91.5962 69.8027 88.3149 70.0591Q85.2388 69.1362 85.2388 67.3931Q90.1606 66.4189 90.1606 65.9575Q90.1606 64.2144 85.6489 60.8306Q84.8286 59.2412 84.8286 58.3696Q84.8286 56.4214 87.6997 55.2935ZM86.8794 56.9341Q86.0591 57.8057 86.0591 58.5747L86.0591 58.7798Q86.1104 59.1899 86.4692 59.1899L87.2896 57.1392L86.8794 56.9341ZM87.4946 68.0083L87.4946 68.4185Q87.5459 68.8286 87.9048 68.8286L89.3403 68.8286Q89.5967 68.8286 90.3657 67.8032L90.3657 67.5981Q89.6992 67.5981 87.4946 68.0083Z"/>
		<path fill="#EFCBBF" transform="translate(46.5 79)" d="M39.7227 8.79688L39.0254 11L32.4453 11L32.4453 10.7832Q32.9961 10.7832 33.2686 10.6426Q33.541 10.502 33.6113 10.2939Q33.6816 10.0859 33.6816 9.40039L33.6816 4.35547Q33.6816 3.65234 33.6025 3.44434Q33.5234 3.23633 33.2598 3.11328Q32.9961 2.99023 32.4453 2.97852L32.4453 2.76172L36.1484 2.76172L36.1484 2.97852Q35.6211 2.99023 35.3691 3.11035Q35.1172 3.23047 35.041 3.44141Q34.9648 3.65234 34.9648 4.35547L34.9648 9.98047Q34.9648 10.2559 35.0674 10.3555Q35.1699 10.4551 35.5977 10.4551L37.1387 10.4551Q38.0938 10.4551 38.5859 10.0947Q39.0781 9.73438 39.5117 8.72656L39.7227 8.79688ZM41.5859 2.36328Q41.8379 2.36328 42.0195 2.54199Q42.2012 2.7207 42.2012 2.97852Q42.2012 3.24219 42.0195 3.4209Q41.8379 3.59961 41.5859 3.59961Q41.3281 3.59961 41.1465 3.41797Q40.9648 3.23633 40.9648 2.97852Q40.9648 2.72656 41.1465 2.54492Q41.3281 2.36328 41.5859 2.36328ZM40.2207 5.93164L41.8848 5.30469L42.0898 5.30469L42.0898 9.66992Q42.0898 10.3262 42.2686 10.5371Q42.4473 10.748 42.9219 10.7832L42.9219 11L40.2207 11L40.2207 10.7832Q40.666 10.7715 40.9092 10.5986Q41.1523 10.4258 41.1523 9.66992L41.1523 7.01562Q41.1523 6.52344 41.0205 6.30664Q40.8887 6.08984 40.5547 6.08984Q40.4141 6.08984 40.2852 6.14844L40.2207 5.93164ZM43.4492 3.08984L45.1309 2.39258L45.3418 2.39258L45.3418 6.40039Q45.7109 5.84961 46.165 5.57715Q46.6191 5.30469 47.1523 5.30469Q48.0605 5.30469 48.7285 6.08691Q49.3965 6.86914 49.3965 8.01172Q49.3965 9.38281 48.4941 10.2734Q47.5918 11.1641 46.4199 11.1641Q45.9336 11.1641 45.4209 10.9824Q44.9082 10.8008 44.3691 10.4434L44.3691 4.32031Q44.3691 3.69922 44.252 3.4707Q44.1348 3.24219 43.7949 3.24219Q43.666 3.24219 43.5254 3.29492L43.4492 3.08984ZM45.3418 6.75781L45.3418 10.1211Q45.6406 10.4434 45.9717 10.6074Q46.3027 10.7715 46.6719 10.7715Q47.4395 10.7715 47.9082 10.0449Q48.377 9.31836 48.377 8.42773Q48.377 7.51367 47.9023 6.83105Q47.4277 6.14844 46.625 6.14844Q46.291 6.14844 45.9717 6.30078Q45.6523 6.45312 45.3418 6.75781ZM52.0332 5.30469L52.0332 6.50586Q52.3965 5.90234 52.7803 5.60352Q53.1641 5.30469 53.5625 5.30469Q53.8438 5.30469 54.0664 5.52148Q54.2891 5.73828 54.2891 6.00195Q54.2891 6.18359 54.1309 6.35059Q53.9727 6.51758 53.7559 6.51758Q53.5332 6.51758 53.252 6.27734Q53.041 6.0957 52.9238 6.0957Q52.7012 6.0957 52.4785 6.30078Q52.2559 6.50586 52.0332 6.91602L52.0332 9.66406Q52.0332 10.373 52.2529 10.5781Q52.4727 10.7832 53.0938 10.7832L53.0938 11L50.1465 11L50.1465 10.7832Q50.6504 10.7656 50.8525 10.5576Q51.0547 10.3496 51.0547 9.66406L51.0547 7.11523Q51.0547 6.43555 50.9053 6.28027Q50.7559 6.125 50.5332 6.125Q50.3809 6.125 50.2168 6.19531L50.1465 5.99609L51.8105 5.30469L52.0332 5.30469ZM60.2363 9.95117L60.2363 10.2559Q59.5156 11.1641 58.8887 11.1641Q58.1504 11.1641 58.127 10.1562Q57.6055 10.6602 57.1162 10.9121Q56.627 11.1641 56.1699 11.1641Q55.6426 11.1641 55.2822 10.7656Q54.9219 10.3672 54.9219 9.80469Q54.9219 9.05469 55.6572 8.5127Q56.3926 7.9707 58.127 7.37891Q58.1211 6.54688 58.0713 6.23926Q58.0215 5.93164 57.7871 5.74121Q57.5527 5.55078 57.0488 5.55078Q56.6504 5.55078 56.3867 5.76758Q56.123 5.98438 56.123 6.35352Q56.123 6.43555 56.1348 6.54688Q56.1406 6.62891 56.1406 6.69922Q56.1406 7.20312 55.6719 7.20312Q55.1504 7.20312 55.1504 6.70508Q55.1504 6.11328 55.7305 5.70898Q56.3105 5.30469 57.2832 5.30469Q58.0039 5.30469 58.4229 5.50684Q58.8418 5.70898 58.9707 6.04883Q59.0996 6.38867 59.0996 7.09766L59.0996 9.88672Q59.0996 10.4551 59.4512 10.4551Q59.7969 10.4551 60.2363 9.95117ZM58.127 9.88672L58.127 7.70117Q56.791 8.25195 56.3574 8.6123Q55.9238 8.97266 55.9238 9.5Q55.9238 9.9043 56.1846 10.1914Q56.4453 10.4785 56.8379 10.4785Q57.1426 10.4785 57.4648 10.3291Q57.7871 10.1797 58.127 9.88672ZM62.6562 5.30469L62.6562 6.50586Q63.0195 5.90234 63.4033 5.60352Q63.7871 5.30469 64.1855 5.30469Q64.4668 5.30469 64.6895 5.52148Q64.9121 5.73828 64.9121 6.00195Q64.9121 6.18359 64.7539 6.35059Q64.5957 6.51758 64.3789 6.51758Q64.1562 6.51758 63.875 6.27734Q63.6641 6.0957 63.5469 6.0957Q63.3242 6.0957 63.1016 6.30078Q62.8789 6.50586 62.6562 6.91602L62.6562 9.66406Q62.6562 10.373 62.876 10.5781Q63.0957 10.7832 63.7168 10.7832L63.7168 11L60.7695 11L60.7695 10.7832Q61.2734 10.7656 61.4756 10.5576Q61.6777 10.3496 61.6777 9.66406L61.6777 7.11523Q61.6777 6.43555 61.5283 6.28027Q61.3789 6.125 61.1562 6.125Q61.0039 6.125 60.8398 6.19531L60.7695 5.99609L62.4336 5.30469L62.6562 5.30469ZM65.2637 5.43359L67.748 5.43359L67.748 5.65039Q67.3906 5.66211 67.2441 5.75879Q67.0977 5.85547 67.0977 6.08398Q67.0977 6.3125 67.209 6.57031L68.5684 9.60547L69.5 7.06836Q69.8457 6.14258 69.8457 6.00781Q69.8457 5.70312 69.2891 5.65039L69.2891 5.43359L70.877 5.43359L70.877 5.65039Q70.6074 5.69141 70.4639 5.91113Q70.3203 6.13086 69.9629 7.06836L68.4512 11.1641Q67.9355 12.5645 67.4287 13.0537Q66.9219 13.543 66.3008 13.543Q65.9492 13.543 65.7236 13.3613Q65.498 13.1797 65.498 12.8926Q65.498 12.6465 65.6738 12.4912Q65.8496 12.3359 66.125 12.3359Q66.3008 12.3359 66.6758 12.4941Q66.8398 12.5586 66.9512 12.5586Q67.4727 12.5586 67.9238 11.3633L68.1113 10.877L66.1777 6.57031Q65.7793 5.67969 65.2637 5.65039L65.2637 5.43359Z"/>
	</g>
</svg>
