<?xml version="1.0" encoding="utf-8" ?>
<svg xmlns="http://www.w3.org/2000/svg" xmlns:xlink="http://www.w3.org/1999/xlink" width="140" height="140">
	<clipPath id="cl_3">
		<rect width="140" height="140"/>
	</clipPath>
	<g clip-path="url(#cl_3)">
		<path fill="#2D4756" transform="translate(10.5 4.5)" d="M30.6221 59.0132L31.0791 59.0132Q31.479 59.0132 31.7646 60.1558Q31.479 61.2983 31.0791 61.2983L30.6221 61.2983Q30.3936 61.2983 29.708 60.1558Q30.165 59.1274 30.6221 59.0132ZM29.708 64.7261L30.165 64.7261Q30.6221 64.7832 30.6221 65.1831L28.5654 75.6948L28.7939 75.6948Q35.3638 67.1826 36.1064 66.7827L36.335 66.7827Q36.792 66.8398 36.792 67.2397L36.792 67.6968Q26.7373 80.3794 26.7373 83.4644Q20.5103 112.714 17.1396 112.714Q16.9111 112.714 16.4541 112.943Q14.1689 112.943 14.1689 109.058L14.1689 108.83Q14.1689 101.06 26.0518 80.0366Q29.0796 64.7261 29.708 64.7261ZM15.7686 109.515Q15.7686 111.172 16.4541 111.343L16.6826 111.343Q19.082 111.343 24.2236 87.1206L24.2236 86.8921Q23.481 86.8921 18.5107 98.3179Q15.7686 104.716 15.7686 109.515ZM45.9897 27.1353L46.6753 27.1353L46.9038 28.0493Q43.019 39.0181 36.6206 67.811Q37.0205 67.811 39.3628 64.8403Q41.5908 62.8408 43.4761 62.7837Q46.9038 62.7837 46.9038 66.897Q46.9038 70.6104 43.019 74.2095L43.019 74.438Q48.4463 74.438 54.6733 67.1255L54.9019 67.1255Q55.3589 67.1826 55.3589 67.5825L55.3589 68.0396Q49.8174 75.8091 42.3335 75.8091Q39.1343 75.8091 36.8491 73.5239L36.8491 73.2954Q36.9062 72.8384 37.3062 72.8384L39.5913 73.5239L40.5054 73.5239Q44.2188 73.5239 45.5327 67.354L45.5327 66.2114Q45.5327 64.8403 44.1616 64.1548L43.2476 64.1548Q40.0483 64.1548 34.564 74.2095L33.8784 74.2095Q33.8784 73.7524 33.6499 73.7524Q42.105 39.0181 45.5327 27.3638L45.9897 27.1353ZM58.7295 64.269Q60.3862 64.269 61.0146 66.7827L60.7861 67.2397L60.7861 68.1538L61.0146 68.1538L65.3564 66.5542L66.2705 66.7827Q67.6416 64.4976 69.0127 64.4976L69.4697 64.4976Q70.7837 64.4976 71.0693 68.1538L71.0693 68.6108Q72.0977 68.6108 74.2686 67.0112L75.1826 67.0112L75.1826 67.6968Q70.1553 70.7246 69.9268 72.0386Q68.4985 75.4663 65.585 75.4663Q63.0713 75.4663 63.0713 72.2671L63.7568 69.0679L63.2998 69.0679Q61.4717 69.8105 59.7578 70.6675Q57.4155 74.3809 55.4731 73.4668Q53.5308 72.5527 53.4736 69.5249Q53.4736 66.0972 58.7295 64.269ZM57.3584 68.1538L57.3584 68.3823Q57.4155 68.8394 57.8154 68.8394L58.958 68.8394L59.1865 67.6968L59.1865 66.3257Q59.1865 65.8687 58.7295 65.8687L58.501 65.8687Q57.3584 66.3828 57.3584 68.1538ZM67.6416 68.3823Q67.8701 69.2964 69.0127 69.2964L69.2412 69.2964Q69.6982 69.2964 69.6982 68.8394L69.6982 67.2397Q69.6982 66.04 69.0127 65.8687Q67.6416 66.6113 67.6416 68.3823ZM55.3018 68.1538L55.0732 69.2964L55.0732 69.9819Q55.0732 71.7529 55.9873 72.0386L56.2158 72.0386Q57.8154 72.0386 57.8154 70.439Q56.3301 70.439 55.6445 67.7539L55.3018 68.1538ZM65.585 68.3823Q64.6709 71.1245 64.6709 72.9526Q65.0137 73.8667 65.3564 73.8667L65.8135 73.8667Q67.9844 73.7524 69.0127 70.896L69.0127 70.6675Q66.042 70.2676 66.042 68.3823L65.585 68.3823ZM84.0947 27.8779Q85.0088 28.2207 85.0088 28.5635L85.0088 29.4775Q83.4092 31.7056 75.6396 66.9541L76.0967 66.9541L81.124 63.2979L82.0381 63.9834Q82.0381 64.4404 75.8682 69.0107L75.8682 69.4678Q78.9531 72.8955 79.5244 72.8955L80.4385 72.8955Q82.7236 72.8955 86.1514 66.7256L87.0654 66.7256Q87.0654 67.1826 87.2939 67.1826Q83.4663 74.7236 80.21 74.7236Q78.896 74.7236 74.9541 70.8389Q74.4399 71.4673 72.4404 79.2939L71.9834 79.2939Q71.812 79.2939 71.2979 78.6084Q79.7529 41.7603 83.4092 28.335Q84.0947 28.1064 84.0947 27.8779ZM87.2368 60.9556L87.6938 60.9556Q88.0938 60.9556 88.3794 62.0981L86.7798 66.6685Q91.1216 71.0674 91.1216 71.9243L91.8071 71.9243Q92.207 71.8101 95.9204 66.897L96.606 66.897L96.606 67.1255Q96.606 68.4966 91.5786 74.2095Q91.5786 77.123 87.9224 77.4087Q84.4946 76.3804 84.4946 74.438Q89.979 73.3525 89.979 72.8384Q89.979 70.896 84.9517 67.1255Q84.0376 65.3545 84.0376 64.3833Q84.0376 62.2124 87.2368 60.9556ZM86.3228 62.7837Q85.4087 63.7549 85.4087 64.6118L85.4087 64.8403Q85.4658 65.2974 85.8657 65.2974L86.7798 63.0122L86.3228 62.7837ZM87.0083 75.1235L87.0083 75.5806Q87.0654 76.0376 87.4653 76.0376L89.0649 76.0376Q89.3506 76.0376 90.2075 74.895L90.2075 74.6665Q89.4648 74.6665 87.0083 75.1235Z"/>
	</g>
</svg>
