<?xml version="1.0" encoding="utf-8" ?>
<svg xmlns="http://www.w3.org/2000/svg" xmlns:xlink="http://www.w3.org/1999/xlink" width="116" height="91">
	<clipPath id="cl_3">
		<rect width="115.13396" height="90.50473"/>
	</clipPath>
	<g clip-path="url(#cl_3)">
		<path transform="translate(33.5 25.5)" d="M17.1523 17.4431Q17.4137 17.605 17.7375 18.7256Q18.0737 19.8462 18.3351 21.166Q18.634 22.6975 18.995 24.5901Q20.8752 25.001 22.3569 25.3994Q23.6269 25.7605 24.6977 26.1963Q25.7809 26.6321 25.7809 27.0305Q25.7809 27.4414 24.6977 27.927Q23.6269 28.4126 22.3071 28.8733Q20.7756 29.4336 18.8332 29.9441L17.8246 33.4055Q17.4137 34.7378 17.0278 35.8335Q16.6418 36.9292 16.3928 36.9292Q16.1313 36.979 15.7702 35.8833Q15.4216 34.7876 15.0107 33.4553Q14.55 31.874 14.1017 29.8943Q12.1096 29.6328 10.5283 29.334Q9.19598 29.0725 8.07537 28.7488Q6.95477 28.4126 6.95477 28.0515Q6.90496 27.7029 7.97576 27.1177Q9.04656 26.52 10.3788 25.9597Q11.8979 25.2998 13.8403 24.5403Q14.7118 22.4983 15.4216 20.917Q15.7328 20.2571 16.0068 19.6221Q16.2931 18.9746 16.5173 18.4641Q16.7538 17.9536 16.9282 17.6797Q17.1025 17.3933 17.1523 17.4431ZM36.1777 15.4011Q36.3769 15.5132 36.5761 16.1482Q36.7878 16.7832 37.0492 17.4929Q37.2485 18.3645 37.5597 19.3357Q38.8298 19.7466 39.801 20.0952Q40.6725 20.4065 41.3823 20.7925Q42.092 21.166 42.092 21.4275Q42.092 21.7263 41.3823 22.1372Q40.6725 22.5481 39.801 22.959Q38.8298 23.4197 37.5597 23.8679Q37.0492 24.9387 36.5387 25.8601Q36.1279 26.6321 35.717 27.2671Q35.3061 27.9021 35.1567 27.9021Q34.9575 27.9519 34.5964 27.292Q34.2353 26.6321 33.8368 25.8601Q33.3762 24.9387 32.8657 23.7683Q31.7949 23.3076 30.9233 22.9092Q30.2136 22.5481 29.6034 22.1995Q28.9933 21.8384 28.9933 21.5769Q28.9311 21.3279 29.6159 20.9917Q30.3132 20.6555 31.1349 20.3567Q32.0439 19.9956 33.2765 19.6345Q34.0361 18.3645 34.6462 17.4431Q35.2065 16.6338 35.6423 15.9988Q36.0781 15.3513 36.1777 15.4011ZM30.4626 1.53052Q30.6742 1.64258 30.8735 2.27759Q31.0851 2.9126 31.3342 3.62231Q31.5334 4.4939 31.8447 5.46509Q33.1147 5.87598 34.0859 6.22461Q34.9575 6.53589 35.6672 6.92188Q36.3769 7.29541 36.3769 7.55688Q36.3769 7.85571 35.6672 8.2666Q34.9575 8.67749 34.0859 9.08838Q33.1147 9.53662 31.8447 9.99731Q31.3342 11.0681 30.8237 11.9895Q30.4128 12.749 30.0019 13.3965Q29.6034 14.0315 29.4416 14.0315Q29.2424 14.0813 28.8813 13.4214Q28.5326 12.749 28.1218 11.9895Q27.6611 11.0681 27.1506 9.89771Q26.0798 9.43701 25.2082 9.02612Q24.4985 8.67749 23.8884 8.31641Q23.2783 7.95532 23.2783 7.7063Q23.2284 7.45728 23.9133 7.12109Q24.5981 6.78491 25.4199 6.48608Q26.3412 6.125 27.5615 5.76392Q28.321 4.4939 28.9311 3.57251Q29.5038 2.76318 29.9272 2.12817Q30.363 1.48071 30.4626 1.53052Z"/>
	</g>
</svg>
