<?xml version="1.0" encoding="utf-8" ?>
<svg xmlns="http://www.w3.org/2000/svg" xmlns:xlink="http://www.w3.org/1999/xlink" width="140" height="140">
	<clipPath id="cl_4">
		<rect width="140" height="140"/>
	</clipPath>
	<g clip-path="url(#cl_4)">
		<path fill="#2D4756" transform="translate(31 61.5)" d="M35.9745 7.5354Q36.0822 7.60205 36.2155 8.06348Q36.3539 8.5249 36.4616 9.06836Q36.5846 9.69897 36.7333 10.4783Q37.5075 10.6475 38.1176 10.8115Q38.6405 10.9602 39.0814 11.1396Q39.5275 11.3191 39.5275 11.4832Q39.5275 11.6523 39.0814 11.8523Q38.6405 12.0522 38.0971 12.2419Q37.4665 12.4727 36.6666 12.6829L36.2514 14.1082Q36.0822 14.6567 35.9232 15.1079Q35.7643 15.5591 35.6618 15.5591Q35.5541 15.5796 35.4054 15.1284Q35.2619 14.6772 35.0927 14.1287Q34.903 13.4775 34.7184 12.6624Q33.8981 12.5547 33.247 12.4316Q32.6984 12.324 32.237 12.1907Q31.7755 12.0522 31.7755 11.9036Q31.755 11.76 32.1959 11.519Q32.6369 11.2729 33.1854 11.0422Q33.8109 10.7705 34.6107 10.4578Q34.9696 9.61694 35.2619 8.96582Q35.39 8.69409 35.5028 8.43262Q35.6208 8.16602 35.713 7.95581Q35.8104 7.74561 35.8822 7.63281Q35.954 7.51489 35.9745 7.5354ZM43.8085 6.69458Q43.8905 6.74072 43.9726 7.0022Q44.0597 7.26367 44.1674 7.55591Q44.2494 7.91479 44.3776 8.3147Q44.9005 8.48389 45.3004 8.62744Q45.6593 8.75562 45.9516 8.91455Q46.2438 9.06836 46.2438 9.17603Q46.2438 9.29907 45.9516 9.46826Q45.6593 9.63745 45.3004 9.80664Q44.9005 9.99634 44.3776 10.1809Q44.1674 10.6218 43.9572 11.0012Q43.788 11.3191 43.6188 11.5806Q43.4496 11.842 43.3881 11.842Q43.3061 11.8625 43.1574 11.5908Q43.0087 11.3191 42.8446 11.0012Q42.6549 10.6218 42.4447 10.1399Q42.0038 9.9502 41.6449 9.78613Q41.3527 9.63745 41.1015 9.4939Q40.8502 9.34521 40.8502 9.23755Q40.8246 9.13501 41.1066 8.99658Q41.3937 8.85815 41.7321 8.73511Q42.1063 8.58643 42.6139 8.43774Q42.9267 7.91479 43.1779 7.5354Q43.4086 7.20215 43.588 6.94067Q43.7675 6.67407 43.8085 6.69458ZM41.4552 0.983154Q41.5424 1.0293 41.6244 1.29077Q41.7116 1.55225 41.8141 1.84448Q41.8961 2.20337 42.0243 2.60327Q42.5473 2.77246 42.9472 2.91602Q43.3061 3.04419 43.5983 3.20312Q43.8905 3.35693 43.8905 3.4646Q43.8905 3.58765 43.5983 3.75684Q43.3061 3.92603 42.9472 4.09521Q42.5473 4.27979 42.0243 4.46948Q41.8141 4.9104 41.6039 5.28979Q41.4347 5.60254 41.2655 5.86914Q41.1015 6.13062 41.0348 6.13062Q40.9528 6.15112 40.8041 5.87939Q40.6605 5.60254 40.4914 5.28979Q40.3017 4.9104 40.0915 4.42847Q39.6505 4.23877 39.2916 4.06958Q38.9994 3.92603 38.7482 3.77734Q38.497 3.62866 38.497 3.52612Q38.4765 3.42358 38.7584 3.28516Q39.0404 3.14673 39.3788 3.02368Q39.7582 2.875 40.2606 2.72632Q40.5734 2.20337 40.8246 1.82397Q41.0604 1.49072 41.2348 1.22925Q41.4142 0.962646 41.4552 0.983154Z"/>
	</g>
</svg>
